<svg width="702" height="480" viewBox="0 0 702 480" fill="none" xmlns="http://www.w3.org/2000/svg">
<rect width="262" height="78" rx="10" fill="white"/>
<rect x="181" y="23" width="64" height="28" rx="14" fill="#52BD94"/>
<path d="M203.195 34.0291C203.146 33.5921 202.943 33.2536 202.586 33.0135C202.229 32.7704 201.78 32.6488 201.238 32.6488C200.85 32.6488 200.515 32.7103 200.232 32.8335C199.948 32.9535 199.728 33.1197 199.571 33.332C199.417 33.5413 199.341 33.7798 199.341 34.0476C199.341 34.2723 199.393 34.4661 199.498 34.6293C199.605 34.7924 199.745 34.9293 199.918 35.0401C200.093 35.1478 200.281 35.2386 200.481 35.3125C200.681 35.3833 200.873 35.4418 201.058 35.4879L201.981 35.728C202.283 35.8018 202.592 35.9019 202.909 36.0281C203.226 36.1542 203.52 36.3204 203.791 36.5266C204.062 36.7328 204.28 36.9883 204.446 37.293C204.616 37.5977 204.7 37.9624 204.7 38.3871C204.7 38.9226 204.562 39.3981 204.285 39.8136C204.011 40.229 203.612 40.5568 203.089 40.7969C202.569 41.0369 201.94 41.157 201.201 41.157C200.493 41.157 199.881 41.0446 199.364 40.82C198.847 40.5953 198.442 40.2768 198.15 39.8643C197.857 39.4489 197.696 38.9564 197.665 38.3871H199.096C199.124 38.7287 199.234 39.0134 199.428 39.2411C199.625 39.4658 199.876 39.6335 200.181 39.7443C200.489 39.852 200.826 39.9059 201.192 39.9059C201.595 39.9059 201.953 39.8428 202.267 39.7166C202.584 39.5874 202.834 39.4089 203.015 39.1811C203.197 38.9503 203.288 38.681 203.288 38.3732C203.288 38.0932 203.208 37.8639 203.048 37.6854C202.891 37.5069 202.677 37.3591 202.406 37.2422C202.138 37.1252 201.835 37.0221 201.496 36.9329L200.379 36.6282C199.622 36.422 199.022 36.1188 198.579 35.7188C198.139 35.3187 197.919 34.7893 197.919 34.1307C197.919 33.5859 198.066 33.1104 198.362 32.7042C198.657 32.2979 199.057 31.9825 199.562 31.7578C200.067 31.5301 200.636 31.4162 201.27 31.4162C201.91 31.4162 202.475 31.5285 202.964 31.7532C203.457 31.9779 203.845 32.2872 204.128 32.6811C204.411 33.072 204.559 33.5213 204.571 34.0291H203.195ZM209.35 41.1431C208.652 41.1431 208.05 40.9938 207.545 40.6953C207.044 40.3937 206.656 39.9705 206.382 39.4258C206.111 38.878 205.976 38.2363 205.976 37.5007C205.976 36.7744 206.111 36.1342 206.382 35.5803C206.656 35.0263 207.037 34.5939 207.527 34.283C208.019 33.9722 208.595 33.8168 209.253 33.8168C209.653 33.8168 210.041 33.8829 210.417 34.0153C210.792 34.1476 211.129 34.3554 211.428 34.6385C211.726 34.9216 211.962 35.2894 212.134 35.7418C212.306 36.1912 212.392 36.7375 212.392 37.3807V37.87H206.756V36.8359H211.04C211.04 36.4728 210.966 36.1512 210.818 35.8711C210.671 35.5879 210.463 35.3648 210.195 35.2017C209.93 35.0386 209.62 34.957 209.263 34.957C208.875 34.957 208.536 35.0524 208.247 35.2433C207.961 35.431 207.739 35.6772 207.582 35.9819C207.428 36.2835 207.351 36.6113 207.351 36.9652V37.7731C207.351 38.247 207.434 38.6502 207.601 38.9826C207.77 39.315 208.005 39.5689 208.307 39.7443C208.609 39.9167 208.961 40.0028 209.364 40.0028C209.626 40.0028 209.864 39.9659 210.08 39.892C210.295 39.8151 210.481 39.7012 210.638 39.5504C210.795 39.3996 210.915 39.2134 210.998 38.9918L212.305 39.2273C212.2 39.612 212.012 39.949 211.742 40.2383C211.474 40.5245 211.137 40.7476 210.731 40.9077C210.327 41.0646 209.867 41.1431 209.35 41.1431ZM215.304 36.7898V41H213.924V33.9091H215.249V35.0632H215.337C215.5 34.6877 215.755 34.3861 216.103 34.1584C216.454 33.9306 216.895 33.8168 217.428 33.8168C217.911 33.8168 218.334 33.9183 218.697 34.1214C219.061 34.3215 219.342 34.62 219.542 35.017C219.742 35.4141 219.842 35.9049 219.842 36.4897V41H218.462V36.6559C218.462 36.1419 218.328 35.7403 218.06 35.451C217.793 35.1586 217.425 35.0124 216.957 35.0124C216.637 35.0124 216.352 35.0817 216.103 35.2202C215.857 35.3587 215.661 35.5618 215.517 35.8295C215.375 36.0942 215.304 36.4143 215.304 36.7898ZM224.348 41.1385C223.776 41.1385 223.265 40.9923 222.815 40.6999C222.369 40.4045 222.018 39.9844 221.763 39.4396C221.51 38.8918 221.384 38.2347 221.384 37.4684C221.384 36.7021 221.512 36.0465 221.767 35.5018C222.026 34.957 222.38 34.54 222.829 34.2507C223.279 33.9614 223.788 33.8168 224.357 33.8168C224.797 33.8168 225.151 33.8906 225.419 34.0384C225.69 34.183 225.899 34.3523 226.047 34.5462C226.198 34.7401 226.315 34.9109 226.398 35.0586H226.481V31.5455H227.861V41H226.513V39.8967H226.398C226.315 40.0475 226.195 40.2198 226.038 40.4137C225.884 40.6076 225.671 40.7769 225.401 40.9215C225.13 41.0662 224.779 41.1385 224.348 41.1385ZM224.653 39.9613C225.05 39.9613 225.385 39.8567 225.659 39.6474C225.936 39.435 226.145 39.1411 226.287 38.7656C226.432 38.3902 226.504 37.9531 226.504 37.4545C226.504 36.9621 226.433 36.5312 226.292 36.1619C226.15 35.7926 225.942 35.5049 225.668 35.2987C225.394 35.0924 225.056 34.9893 224.653 34.9893C224.237 34.9893 223.891 35.0971 223.614 35.3125C223.337 35.5279 223.128 35.8219 222.986 36.1942C222.848 36.5666 222.778 36.9867 222.778 37.4545C222.778 37.9285 222.849 38.3548 222.991 38.7333C223.132 39.1119 223.342 39.4119 223.619 39.6335C223.899 39.852 224.243 39.9613 224.653 39.9613Z" fill="white"/>
<path d="M19.0568 26V17.2727H24.3239V18.2102H20.1136V21.1591H24.0511V22.0966H20.1136V25.0625H24.392V26H19.0568ZM27.098 22.0625V26H26.0923V19.4545H27.0639V20.4773H27.1491C27.3026 20.1449 27.5355 19.8778 27.848 19.6761C28.1605 19.4716 28.5639 19.3693 29.0582 19.3693C29.5014 19.3693 29.8892 19.4602 30.2216 19.642C30.554 19.821 30.8125 20.0938 30.9972 20.4602C31.1818 20.8239 31.2741 21.2841 31.2741 21.8409V26H30.2685V21.9091C30.2685 21.3949 30.1349 20.9943 29.8679 20.7074C29.6009 20.4176 29.2344 20.2727 28.7685 20.2727C28.4474 20.2727 28.1605 20.3423 27.9077 20.4815C27.6577 20.6207 27.4602 20.8239 27.3153 21.0909C27.1705 21.358 27.098 21.6818 27.098 22.0625ZM35.9585 19.4545V20.3068H32.5664V19.4545H35.9585ZM33.555 17.8864H34.5607V24.125C34.5607 24.4091 34.6019 24.6222 34.6843 24.7642C34.7695 24.9034 34.8775 24.9972 35.0082 25.0455C35.1417 25.0909 35.2823 25.1136 35.43 25.1136C35.5408 25.1136 35.6317 25.108 35.7028 25.0966C35.7738 25.0824 35.8306 25.071 35.8732 25.0625L36.0778 25.9659C36.0096 25.9915 35.9144 26.017 35.7923 26.0426C35.6701 26.071 35.5153 26.0852 35.3278 26.0852C35.0437 26.0852 34.7653 26.0241 34.4925 25.902C34.2227 25.7798 33.9982 25.5938 33.8192 25.3438C33.6431 25.0938 33.555 24.7784 33.555 24.3977V17.8864ZM40.1452 26.1364C39.5146 26.1364 38.9705 25.9972 38.5131 25.7188C38.0586 25.4375 37.7077 25.0455 37.4606 24.5426C37.2163 24.0369 37.0941 23.4489 37.0941 22.7784C37.0941 22.108 37.2163 21.517 37.4606 21.0057C37.7077 20.4915 38.0515 20.0909 38.4918 19.804C38.935 19.5142 39.4521 19.3693 40.043 19.3693C40.3839 19.3693 40.7205 19.4261 41.0529 19.5398C41.3853 19.6534 41.6879 19.8381 41.9606 20.0938C42.2333 20.3466 42.4506 20.6818 42.6126 21.0994C42.7745 21.517 42.8555 22.0312 42.8555 22.642V23.0682H37.81V22.1989H41.8327C41.8327 21.8295 41.7589 21.5 41.6112 21.2102C41.4663 20.9205 41.2589 20.6918 40.989 20.5241C40.7219 20.3565 40.4066 20.2727 40.043 20.2727C39.6424 20.2727 39.2958 20.3722 39.0032 20.571C38.7134 20.767 38.4904 21.0227 38.3342 21.3381C38.1779 21.6534 38.0998 21.9915 38.0998 22.3523V22.9318C38.0998 23.4261 38.185 23.8452 38.3555 24.1889C38.5288 24.5298 38.7688 24.7898 39.0756 24.9688C39.3825 25.1449 39.739 25.233 40.1452 25.233C40.4094 25.233 40.6481 25.196 40.8612 25.1222C41.0771 25.0455 41.2631 24.9318 41.4194 24.7812C41.5756 24.6278 41.6964 24.4375 41.7816 24.2102L42.7532 24.483C42.6509 24.8125 42.479 25.1023 42.2376 25.3523C41.9961 25.5994 41.6978 25.7926 41.3427 25.9318C40.9876 26.0682 40.5884 26.1364 40.1452 26.1364ZM44.3853 26V19.4545H45.3569V20.4432H45.4251C45.5444 20.1193 45.7603 19.8565 46.0728 19.6548C46.3853 19.4531 46.7376 19.3523 47.1296 19.3523C47.2035 19.3523 47.2958 19.3537 47.4066 19.3565C47.5174 19.3594 47.6012 19.3636 47.658 19.3693V20.392C47.6239 20.3835 47.5458 20.3707 47.4237 20.3537C47.3043 20.3338 47.1779 20.3239 47.0444 20.3239C46.7262 20.3239 46.4421 20.3906 46.1921 20.5241C45.945 20.6548 45.7489 20.8366 45.604 21.0696C45.462 21.2997 45.391 21.5625 45.391 21.858V26H44.3853ZM54.1513 26.1534C53.7365 26.1534 53.3601 26.0753 53.022 25.919C52.6839 25.7599 52.4155 25.5312 52.2166 25.233C52.0178 24.9318 51.9183 24.5682 51.9183 24.142C51.9183 23.767 51.9922 23.4631 52.1399 23.2301C52.2876 22.9943 52.4851 22.8097 52.7322 22.6761C52.9794 22.5426 53.2521 22.4432 53.5504 22.3778C53.8516 22.3097 54.1541 22.2557 54.4581 22.2159C54.8558 22.1648 55.1783 22.1264 55.4254 22.1009C55.6754 22.0724 55.8572 22.0256 55.9709 21.9602C56.0874 21.8949 56.1456 21.7812 56.1456 21.6193V21.5852C56.1456 21.1648 56.0305 20.8381 55.8004 20.6051C55.5732 20.3722 55.228 20.2557 54.7649 20.2557C54.2848 20.2557 53.9084 20.3608 53.6357 20.571C53.3629 20.7812 53.1712 21.0057 53.0604 21.2443L52.1058 20.9034C52.2763 20.5057 52.5036 20.196 52.7876 19.9744C53.0746 19.75 53.3871 19.5937 53.7251 19.5057C54.0661 19.4148 54.4013 19.3693 54.7308 19.3693C54.9411 19.3693 55.1825 19.3949 55.4553 19.446C55.7308 19.4943 55.9964 19.5952 56.2521 19.7486C56.5107 19.902 56.7251 20.1335 56.8956 20.4432C57.0661 20.7528 57.1513 21.1676 57.1513 21.6875V26H56.1456V25.1136H56.0945C56.0263 25.2557 55.9126 25.4077 55.7536 25.5696C55.5945 25.7315 55.3828 25.8693 55.1186 25.983C54.8544 26.0966 54.532 26.1534 54.1513 26.1534ZM54.3047 25.25C54.7024 25.25 55.0376 25.1719 55.3104 25.0156C55.5859 24.8594 55.7933 24.6577 55.9325 24.4105C56.0746 24.1634 56.1456 23.9034 56.1456 23.6307V22.7102C56.103 22.7614 56.0092 22.8082 55.8643 22.8509C55.7223 22.8906 55.5575 22.9261 55.37 22.9574C55.1854 22.9858 55.005 23.0114 54.8288 23.0341C54.6555 23.054 54.5149 23.071 54.407 23.0852C54.1456 23.1193 53.9013 23.1747 53.674 23.2514C53.4496 23.3253 53.2678 23.4375 53.1286 23.5881C52.9922 23.7358 52.924 23.9375 52.924 24.1932C52.924 24.5426 53.0533 24.8068 53.3118 24.9858C53.5732 25.1619 53.9041 25.25 54.3047 25.25ZM58.9869 26V19.4545H59.9585V20.4773H60.0437C60.18 20.1278 60.4002 19.8565 60.7042 19.6634C61.0082 19.4673 61.3732 19.3693 61.7994 19.3693C62.2312 19.3693 62.5906 19.4673 62.8775 19.6634C63.1673 19.8565 63.3931 20.1278 63.555 20.4773H63.6232C63.7908 20.1392 64.0423 19.8707 64.3775 19.6719C64.7127 19.4702 65.1147 19.3693 65.5835 19.3693C66.1687 19.3693 66.6474 19.5526 67.0195 19.919C67.3917 20.2827 67.5778 20.8494 67.5778 21.6193V26H66.5721V21.6193C66.5721 21.1364 66.44 20.7912 66.1758 20.5838C65.9116 20.3764 65.6005 20.2727 65.2425 20.2727C64.7823 20.2727 64.4258 20.4119 64.1729 20.6903C63.9201 20.9659 63.7937 21.3153 63.7937 21.7386V26H62.771V21.517C62.771 21.1449 62.6502 20.8452 62.4087 20.6179C62.1673 20.3878 61.8562 20.2727 61.4755 20.2727C61.2141 20.2727 60.9698 20.3423 60.7425 20.4815C60.5181 20.6207 60.3363 20.8139 60.1971 21.0611C60.0607 21.3054 59.9925 21.5881 59.9925 21.9091V26H58.9869ZM72.0756 26.1364C71.4847 26.1364 70.9663 25.9957 70.5202 25.7145C70.0771 25.4332 69.7305 25.0398 69.4805 24.5341C69.2333 24.0284 69.1097 23.4375 69.1097 22.7614C69.1097 22.0795 69.2333 21.4844 69.4805 20.9759C69.7305 20.4673 70.0771 20.0724 70.5202 19.7912C70.9663 19.5099 71.4847 19.3693 72.0756 19.3693C72.6665 19.3693 73.1836 19.5099 73.6268 19.7912C74.0728 20.0724 74.4194 20.4673 74.6665 20.9759C74.9165 21.4844 75.0415 22.0795 75.0415 22.7614C75.0415 23.4375 74.9165 24.0284 74.6665 24.5341C74.4194 25.0398 74.0728 25.4332 73.6268 25.7145C73.1836 25.9957 72.6665 26.1364 72.0756 26.1364ZM72.0756 25.233C72.5245 25.233 72.8938 25.1179 73.1836 24.8878C73.4734 24.6577 73.6879 24.3551 73.8271 23.9801C73.9663 23.6051 74.0359 23.1989 74.0359 22.7614C74.0359 22.3239 73.9663 21.9162 73.8271 21.5384C73.6879 21.1605 73.4734 20.8551 73.1836 20.6222C72.8938 20.3892 72.5245 20.2727 72.0756 20.2727C71.6268 20.2727 71.2575 20.3892 70.9677 20.6222C70.6779 20.8551 70.4634 21.1605 70.3242 21.5384C70.185 21.9162 70.1154 22.3239 70.1154 22.7614C70.1154 23.1989 70.185 23.6051 70.3242 23.9801C70.4634 24.3551 70.6779 24.6577 70.9677 24.8878C71.2575 25.1179 71.6268 25.233 72.0756 25.233ZM80.7017 23.3239V19.4545H81.7074V26H80.7017V24.892H80.6335C80.4801 25.2244 80.2415 25.5071 79.9176 25.7401C79.5938 25.9702 79.1847 26.0852 78.6903 26.0852C78.2812 26.0852 77.9176 25.9957 77.5994 25.8168C77.2813 25.6349 77.0313 25.3622 76.8494 24.9986C76.6676 24.6321 76.5767 24.1705 76.5767 23.6136V19.4545H77.5824V23.5455C77.5824 24.0227 77.7159 24.4034 77.983 24.6875C78.2528 24.9716 78.5966 25.1136 79.0142 25.1136C79.2642 25.1136 79.5185 25.0497 79.777 24.9219C80.0384 24.794 80.2571 24.598 80.4332 24.3338C80.6122 24.0696 80.7017 23.733 80.7017 23.3239ZM84.555 22.0625V26H83.5494V19.4545H84.521V20.4773H84.6062C84.7596 20.1449 84.9925 19.8778 85.305 19.6761C85.6175 19.4716 86.021 19.3693 86.5153 19.3693C86.9585 19.3693 87.3462 19.4602 87.6786 19.642C88.011 19.821 88.2695 20.0938 88.4542 20.4602C88.6388 20.8239 88.7312 21.2841 88.7312 21.8409V26H87.7255V21.9091C87.7255 21.3949 87.592 20.9943 87.3249 20.7074C87.0579 20.4176 86.6914 20.2727 86.2255 20.2727C85.9045 20.2727 85.6175 20.3423 85.3647 20.4815C85.1147 20.6207 84.9173 20.8239 84.7724 21.0909C84.6275 21.358 84.555 21.6818 84.555 22.0625ZM93.4155 19.4545V20.3068H90.0234V19.4545H93.4155ZM91.0121 17.8864H92.0178V24.125C92.0178 24.4091 92.0589 24.6222 92.1413 24.7642C92.2266 24.9034 92.3345 24.9972 92.4652 25.0455C92.5987 25.0909 92.7393 25.1136 92.8871 25.1136C92.9979 25.1136 93.0888 25.108 93.1598 25.0966C93.2308 25.0824 93.2876 25.071 93.3303 25.0625L93.5348 25.9659C93.4666 25.9915 93.3714 26.017 93.2493 26.0426C93.1271 26.071 92.9723 26.0852 92.7848 26.0852C92.5007 26.0852 92.2223 26.0241 91.9496 25.902C91.6797 25.7798 91.4553 25.5938 91.2763 25.3438C91.1001 25.0938 91.0121 24.7784 91.0121 24.3977V17.8864Z" fill="#A9A7B6"/>
<path d="M22.7102 56.4545V41.9091H23.642V56.4545H22.7102ZM25.625 46.4205C25.5644 45.8826 25.3144 45.4659 24.875 45.1705C24.4356 44.8712 23.8826 44.7216 23.2159 44.7216C22.7386 44.7216 22.3258 44.7973 21.9773 44.9489C21.6288 45.0966 21.358 45.3011 21.1648 45.5625C20.9754 45.8201 20.8807 46.1136 20.8807 46.4432C20.8807 46.7197 20.9451 46.9583 21.0739 47.1591C21.2064 47.3598 21.3788 47.5284 21.5909 47.6648C21.8068 47.7973 22.0379 47.9091 22.2841 48C22.5303 48.0871 22.767 48.1591 22.9943 48.2159L24.1307 48.5114C24.5019 48.6023 24.8826 48.7254 25.2727 48.8807C25.6629 49.036 26.0246 49.2405 26.358 49.4943C26.6913 49.7481 26.9602 50.0625 27.1648 50.4375C27.3731 50.8125 27.4773 51.2614 27.4773 51.7841C27.4773 52.4432 27.3068 53.0284 26.9659 53.5398C26.6288 54.0511 26.1383 54.4545 25.4943 54.75C24.8542 55.0455 24.0795 55.1932 23.1705 55.1932C22.2992 55.1932 21.5455 55.0549 20.9091 54.7784C20.2727 54.5019 19.7746 54.1098 19.4148 53.6023C19.0549 53.0909 18.8561 52.4848 18.8182 51.7841H20.5795C20.6136 52.2045 20.75 52.5549 20.9886 52.8352C21.2311 53.1117 21.5398 53.3182 21.9148 53.4545C22.2936 53.5871 22.7083 53.6534 23.1591 53.6534C23.6553 53.6534 24.0966 53.5758 24.483 53.4205C24.8731 53.2614 25.1799 53.0417 25.4034 52.7614C25.6269 52.4773 25.7386 52.1458 25.7386 51.767C25.7386 51.4223 25.6402 51.1402 25.4432 50.9205C25.25 50.7008 24.9867 50.5189 24.6534 50.375C24.3239 50.2311 23.9508 50.1042 23.5341 49.9943L22.1591 49.6193C21.2273 49.3655 20.4886 48.9924 19.9432 48.5C19.4015 48.0076 19.1307 47.3561 19.1307 46.5455C19.1307 45.875 19.3125 45.2898 19.6761 44.7898C20.0398 44.2898 20.5322 43.9015 21.1534 43.625C21.7746 43.3447 22.4754 43.2045 23.2557 43.2045C24.0436 43.2045 24.7386 43.3428 25.3409 43.6193C25.947 43.8958 26.4242 44.2765 26.7727 44.7614C27.1212 45.2424 27.303 45.7955 27.3182 46.4205H25.625ZM29.1719 52.7273V51.3068L34.2003 43.3636H35.3196V45.4545H34.6094L31.0128 51.1477V51.2386H37.9048V52.7273H29.1719ZM34.6889 55V52.2955L34.7003 51.6477V43.3636H36.3651V55H34.6889ZM43.7259 55.1591C43.0137 55.1591 42.3736 55.0227 41.8054 54.75C41.241 54.4735 40.7902 54.0947 40.4531 53.6136C40.116 53.1326 39.9361 52.5833 39.9134 51.9659H41.6179C41.6596 52.4659 41.8812 52.8769 42.2827 53.1989C42.6842 53.5208 43.1652 53.6818 43.7259 53.6818C44.1728 53.6818 44.5687 53.5795 44.9134 53.375C45.2618 53.1667 45.5346 52.8807 45.7315 52.517C45.9323 52.1534 46.0327 51.7386 46.0327 51.2727C46.0327 50.7992 45.9304 50.3769 45.7259 50.0057C45.5213 49.6345 45.2391 49.3428 44.8793 49.1307C44.5232 48.9186 44.1141 48.8106 43.652 48.8068C43.2997 48.8068 42.9455 48.8674 42.5895 48.9886C42.2334 49.1098 41.9455 49.2689 41.7259 49.4659L40.1179 49.2273L40.7713 43.3636H47.169V44.8693H42.2315L41.8622 48.125H41.9304C42.1577 47.9053 42.4588 47.7216 42.8338 47.5739C43.2126 47.4261 43.6179 47.3523 44.0497 47.3523C44.758 47.3523 45.3887 47.5208 45.9418 47.858C46.4986 48.1951 46.9361 48.6553 47.2543 49.2386C47.5762 49.8182 47.7353 50.4848 47.7315 51.2386C47.7353 51.9924 47.5649 52.6648 47.2202 53.2557C46.8793 53.8466 46.4058 54.3125 45.7997 54.6534C45.1974 54.9905 44.5062 55.1591 43.7259 55.1591ZM53.858 55.1932C52.9602 55.1894 52.1932 54.9527 51.5568 54.483C50.9205 54.0133 50.4337 53.3295 50.0966 52.4318C49.7595 51.5341 49.5909 50.4527 49.5909 49.1875C49.5909 47.9261 49.7595 46.8485 50.0966 45.9545C50.4375 45.0606 50.9261 44.3788 51.5625 43.9091C52.2027 43.4394 52.9678 43.2045 53.858 43.2045C54.7481 43.2045 55.5114 43.4413 56.1477 43.9148C56.7841 44.3845 57.2708 45.0663 57.608 45.9602C57.9489 46.8504 58.1193 47.9261 58.1193 49.1875C58.1193 50.4564 57.9508 51.5398 57.6136 52.4375C57.2765 53.3314 56.7898 54.0152 56.1534 54.4886C55.517 54.9583 54.7519 55.1932 53.858 55.1932ZM53.858 53.6761C54.6458 53.6761 55.2614 53.2917 55.7045 52.5227C56.1515 51.7538 56.375 50.642 56.375 49.1875C56.375 48.2216 56.2727 47.4053 56.0682 46.7386C55.8674 46.0682 55.5777 45.5606 55.1989 45.2159C54.8239 44.8674 54.3769 44.6932 53.858 44.6932C53.0739 44.6932 52.4583 45.0795 52.0114 45.8523C51.5644 46.625 51.339 47.7367 51.3352 49.1875C51.3352 50.1572 51.4356 50.9773 51.6364 51.6477C51.8409 52.3144 52.1307 52.8201 52.5057 53.1648C52.8807 53.5057 53.3314 53.6761 53.858 53.6761ZM60.8551 55.108C60.5445 55.108 60.2775 54.9981 60.054 54.7784C59.8305 54.5549 59.7188 54.286 59.7188 53.9716C59.7188 53.661 59.8305 53.3958 60.054 53.1761C60.2775 52.9527 60.5445 52.8409 60.8551 52.8409C61.1657 52.8409 61.4328 52.9527 61.6562 53.1761C61.8797 53.3958 61.9915 53.661 61.9915 53.9716C61.9915 54.1799 61.9384 54.3712 61.8324 54.5455C61.7301 54.7159 61.5938 54.8523 61.4233 54.9545C61.2528 55.0568 61.0634 55.108 60.8551 55.108ZM65.3864 55.108C65.0758 55.108 64.8087 54.9981 64.5852 54.7784C64.3617 54.5549 64.25 54.286 64.25 53.9716C64.25 53.661 64.3617 53.3958 64.5852 53.1761C64.8087 52.9527 65.0758 52.8409 65.3864 52.8409C65.697 52.8409 65.964 52.9527 66.1875 53.1761C66.411 53.3958 66.5227 53.661 66.5227 53.9716C66.5227 54.1799 66.4697 54.3712 66.3636 54.5455C66.2614 54.7159 66.125 54.8523 65.9545 54.9545C65.7841 55.0568 65.5947 55.108 65.3864 55.108ZM72.4048 55.1932C71.5071 55.1894 70.7401 54.9527 70.1037 54.483C69.4673 54.0133 68.9806 53.3295 68.6435 52.4318C68.3063 51.5341 68.1378 50.4527 68.1378 49.1875C68.1378 47.9261 68.3063 46.8485 68.6435 45.9545C68.9844 45.0606 69.473 44.3788 70.1094 43.9091C70.7495 43.4394 71.5147 43.2045 72.4048 43.2045C73.295 43.2045 74.0582 43.4413 74.6946 43.9148C75.331 44.3845 75.8177 45.0663 76.1548 45.9602C76.4957 46.8504 76.6662 47.9261 76.6662 49.1875C76.6662 50.4564 76.4976 51.5398 76.1605 52.4375C75.8234 53.3314 75.3366 54.0152 74.7003 54.4886C74.0639 54.9583 73.2988 55.1932 72.4048 55.1932ZM72.4048 53.6761C73.1927 53.6761 73.8082 53.2917 74.2514 52.5227C74.6984 51.7538 74.9219 50.642 74.9219 49.1875C74.9219 48.2216 74.8196 47.4053 74.6151 46.7386C74.4143 46.0682 74.1245 45.5606 73.7457 45.2159C73.3707 44.8674 72.9238 44.6932 72.4048 44.6932C71.6207 44.6932 71.0052 45.0795 70.5582 45.8523C70.1113 46.625 69.8859 47.7367 69.8821 49.1875C69.8821 50.1572 69.9825 50.9773 70.1832 51.6477C70.3878 52.3144 70.6776 52.8201 71.0526 53.1648C71.4276 53.5057 71.8783 53.6761 72.4048 53.6761ZM82.733 55.1932C81.8352 55.1894 81.0682 54.9527 80.4318 54.483C79.7955 54.0133 79.3087 53.3295 78.9716 52.4318C78.6345 51.5341 78.4659 50.4527 78.4659 49.1875C78.4659 47.9261 78.6345 46.8485 78.9716 45.9545C79.3125 45.0606 79.8011 44.3788 80.4375 43.9091C81.0777 43.4394 81.8428 43.2045 82.733 43.2045C83.6231 43.2045 84.3864 43.4413 85.0227 43.9148C85.6591 44.3845 86.1458 45.0663 86.483 45.9602C86.8239 46.8504 86.9943 47.9261 86.9943 49.1875C86.9943 50.4564 86.8258 51.5398 86.4886 52.4375C86.1515 53.3314 85.6648 54.0152 85.0284 54.4886C84.392 54.9583 83.6269 55.1932 82.733 55.1932ZM82.733 53.6761C83.5208 53.6761 84.1364 53.2917 84.5795 52.5227C85.0265 51.7538 85.25 50.642 85.25 49.1875C85.25 48.2216 85.1477 47.4053 84.9432 46.7386C84.7424 46.0682 84.4527 45.5606 84.0739 45.2159C83.6989 44.8674 83.2519 44.6932 82.733 44.6932C81.9489 44.6932 81.3333 45.0795 80.8864 45.8523C80.4394 46.625 80.214 47.7367 80.2102 49.1875C80.2102 50.1572 80.3106 50.9773 80.5114 51.6477C80.7159 52.3144 81.0057 52.8201 81.3807 53.1648C81.7557 53.5057 82.2064 53.6761 82.733 53.6761Z" fill="black"/>
<g clip-path="url(#clip0_135_7)">
<rect x="560.658" y="260" width="146" height="188" rx="10" transform="rotate(15 560.658 260)" fill="#161C28"/>
<circle cx="520.755" cy="423.755" r="79" transform="rotate(15 520.755 423.755)" fill="#232937"/>
<circle cx="714.922" cy="306.947" r="79" transform="rotate(15 714.922 306.947)" fill="#232937"/>
<circle opacity="0.5" cx="596.098" cy="294.152" r="14" transform="rotate(15 596.098 294.152)" fill="white"/>
<circle opacity="0.5" cx="580.031" cy="289.847" r="14" transform="rotate(15 580.031 289.847)" fill="white"/>
<path d="M558.452 338.089L557.431 337.816C557.449 337.506 557.412 337.22 557.321 336.957C557.232 336.695 557.101 336.46 556.928 336.252C556.758 336.041 556.554 335.863 556.317 335.717C556.079 335.571 555.821 335.461 555.541 335.386C555.03 335.249 554.533 335.254 554.05 335.401C553.569 335.549 553.139 335.841 552.761 336.278C552.385 336.715 552.099 337.299 551.903 338.029C551.708 338.759 551.663 339.407 551.77 339.974C551.88 340.542 552.106 341.01 552.448 341.378C552.794 341.747 553.221 342 553.732 342.136C554.012 342.211 554.291 342.245 554.57 342.237C554.848 342.23 555.113 342.179 555.365 342.084C555.62 341.988 555.852 341.848 556.059 341.666C556.271 341.481 556.445 341.252 556.584 340.977L557.604 341.251C557.412 341.661 557.169 342.009 556.875 342.295C556.58 342.581 556.25 342.802 555.885 342.96C555.52 343.115 555.132 343.204 554.723 343.227C554.317 343.251 553.901 343.205 553.476 343.091C552.757 342.899 552.165 342.552 551.699 342.051C551.233 341.549 550.927 340.932 550.779 340.198C550.632 339.465 550.677 338.653 550.915 337.764C551.154 336.875 551.52 336.15 552.015 335.588C552.509 335.026 553.083 334.645 553.737 334.444C554.391 334.243 555.078 334.238 555.797 334.431C556.222 334.545 556.605 334.714 556.945 334.937C557.288 335.161 557.578 335.433 557.816 335.753C558.054 336.07 558.23 336.426 558.342 336.82C558.454 337.212 558.491 337.635 558.452 338.089ZM558.416 344.292L560.111 337.969L561.049 338.221L560.793 339.176L560.859 339.193C561.058 338.911 561.335 338.713 561.689 338.599C562.043 338.485 562.409 338.479 562.788 338.581C562.859 338.6 562.948 338.625 563.054 338.656C563.161 338.688 563.24 338.714 563.294 338.734L563.029 339.722C562.998 339.705 562.926 339.672 562.813 339.624C562.703 339.574 562.583 339.532 562.454 339.497C562.147 339.415 561.855 339.406 561.579 339.47C561.306 339.532 561.07 339.657 560.87 339.845C560.673 340.03 560.536 340.266 560.46 340.551L559.388 344.552L558.416 344.292ZM565.152 346.238C564.543 346.074 564.054 345.799 563.684 345.412C563.318 345.022 563.08 344.553 562.972 344.003C562.866 343.452 562.901 342.852 563.074 342.204C563.248 341.557 563.519 341.018 563.887 340.587C564.259 340.154 564.695 339.856 565.194 339.693C565.697 339.528 566.234 339.522 566.805 339.675C567.134 339.763 567.445 339.905 567.736 340.101C568.028 340.297 568.272 340.553 568.47 340.871C568.668 341.186 568.791 341.566 568.839 342.011C568.887 342.456 568.833 342.974 568.675 343.564L568.564 343.975L563.691 342.67L563.916 341.83L567.801 342.871C567.897 342.514 567.911 342.177 567.843 341.859C567.778 341.541 567.637 341.267 567.42 341.035C567.205 340.804 566.922 340.641 566.571 340.547C566.184 340.444 565.824 340.45 565.49 340.566C565.159 340.681 564.877 340.87 564.645 341.134C564.412 341.398 564.249 341.705 564.156 342.053L564.006 342.613C563.878 343.09 563.852 343.517 563.927 343.893C564.007 344.267 564.171 344.581 564.421 344.833C564.672 345.082 564.994 345.26 565.386 345.365C565.641 345.433 565.881 345.459 566.106 345.443C566.335 345.425 566.544 345.363 566.734 345.258C566.924 345.151 567.09 344.998 567.231 344.801L568.099 345.316C567.915 345.607 567.674 345.843 567.376 346.022C567.079 346.198 566.741 346.307 566.362 346.35C565.984 346.39 565.58 346.352 565.152 346.238ZM571.104 347.85C570.703 347.743 570.36 347.57 570.074 347.331C569.788 347.09 569.588 346.8 569.473 346.46C569.359 346.118 569.357 345.741 569.468 345.329C569.565 344.967 569.715 344.693 569.918 344.506C570.121 344.316 570.36 344.189 570.633 344.124C570.907 344.059 571.196 344.033 571.501 344.048C571.809 344.06 572.115 344.086 572.419 344.126C572.817 344.18 573.138 344.226 573.384 344.265C573.632 344.303 573.82 344.304 573.947 344.271C574.076 344.238 574.162 344.143 574.204 343.987L574.213 343.954C574.321 343.548 574.295 343.202 574.133 342.918C573.974 342.634 573.67 342.432 573.223 342.312C572.759 342.188 572.369 342.192 572.051 342.324C571.733 342.457 571.49 342.624 571.321 342.826L570.487 342.249C570.755 341.909 571.054 341.669 571.386 341.529C571.721 341.386 572.064 341.316 572.413 341.319C572.766 341.319 573.101 341.362 573.42 341.447C573.623 341.501 573.849 341.589 574.099 341.709C574.353 341.827 574.584 341.993 574.791 342.207C575.001 342.422 575.148 342.701 575.233 343.045C575.317 343.388 575.292 343.811 575.158 344.313L574.041 348.478L573.07 348.218L573.299 347.362L573.25 347.349C573.147 347.468 572.998 347.586 572.803 347.701C572.607 347.816 572.367 347.894 572.082 347.936C571.798 347.977 571.472 347.949 571.104 347.85ZM571.486 347.017C571.87 347.12 572.214 347.131 572.518 347.051C572.825 346.971 573.077 346.83 573.276 346.628C573.477 346.426 573.613 346.193 573.683 345.929L573.921 345.04C573.867 345.079 573.764 345.1 573.613 345.103C573.466 345.105 573.298 345.097 573.108 345.078C572.923 345.058 572.742 345.036 572.566 345.012C572.393 344.987 572.253 344.967 572.145 344.953C571.884 344.918 571.633 344.908 571.394 344.923C571.158 344.937 570.953 344.998 570.78 345.107C570.61 345.215 570.492 345.392 570.426 345.639C570.335 345.976 570.392 346.265 570.595 346.505C570.802 346.743 571.099 346.913 571.486 347.017ZM578.167 349.725C577.64 349.584 577.21 349.326 576.878 348.952C576.547 348.575 576.333 348.111 576.236 347.562C576.14 347.01 576.181 346.399 576.361 345.729C576.539 345.065 576.807 344.519 577.166 344.092C577.524 343.665 577.942 343.372 578.42 343.215C578.897 343.057 579.402 343.05 579.934 343.193C580.346 343.303 580.653 343.459 580.855 343.66C581.06 343.859 581.203 344.062 581.283 344.269C581.366 344.473 581.429 344.64 581.471 344.769L581.553 344.791L582.387 341.679L583.358 341.94L581.1 350.37L580.161 350.118L580.421 349.147L580.306 349.116C580.204 349.212 580.063 349.33 579.885 349.47C579.707 349.608 579.477 349.713 579.196 349.784C578.916 349.853 578.573 349.834 578.167 349.725ZM578.532 348.887C578.922 348.992 579.278 348.979 579.602 348.848C579.926 348.714 580.206 348.485 580.443 348.16C580.681 347.832 580.864 347.43 580.992 346.952C581.118 346.48 581.16 346.049 581.118 345.658C581.076 345.265 580.947 344.933 580.731 344.664C580.516 344.391 580.211 344.202 579.816 344.096C579.404 343.986 579.033 344 578.702 344.137C578.374 344.273 578.094 344.502 577.86 344.825C577.63 345.146 577.456 345.528 577.337 345.973C577.216 346.423 577.175 346.85 577.214 347.255C577.256 347.657 577.384 348.003 577.597 348.293C577.814 348.58 578.126 348.779 578.532 348.887ZM583.014 350.882L584.708 344.56L585.679 344.82L583.985 351.143L583.014 350.882ZM585.484 343.639C585.295 343.588 585.149 343.48 585.046 343.314C584.946 343.149 584.92 342.976 584.969 342.795C585.017 342.614 585.126 342.477 585.295 342.384C585.467 342.291 585.648 342.271 585.837 342.321C586.026 342.372 586.171 342.48 586.271 342.645C586.373 342.811 586.4 342.984 586.352 343.165C586.303 343.346 586.193 343.483 586.022 343.575C585.852 343.668 585.673 343.689 585.484 343.639ZM590.208 346.034L589.987 346.857L586.711 345.979L586.931 345.156L590.208 346.034ZM588.292 343.897L589.264 344.157L587.649 350.183C587.575 350.458 587.56 350.674 587.603 350.833C587.649 350.989 587.729 351.108 587.843 351.188C587.96 351.267 588.09 351.325 588.233 351.363C588.34 351.392 588.429 351.41 588.501 351.417C588.573 351.422 588.631 351.426 588.674 351.429L588.638 352.354C588.565 352.361 588.467 352.361 588.342 352.354C588.217 352.35 588.064 352.324 587.883 352.275C587.608 352.202 587.355 352.071 587.123 351.882C586.894 351.694 586.726 351.456 586.617 351.169C586.512 350.882 586.508 350.554 586.607 350.186L588.292 343.897ZM601.703 349.679L600.682 349.405C600.701 349.095 600.664 348.809 600.573 348.546C600.484 348.284 600.353 348.049 600.179 347.841C600.009 347.631 599.806 347.452 599.568 347.307C599.331 347.161 599.072 347.05 598.792 346.975C598.282 346.838 597.785 346.843 597.301 346.99C596.821 347.138 596.391 347.43 596.012 347.867C595.636 348.304 595.35 348.888 595.155 349.618C594.959 350.348 594.915 350.996 595.022 351.563C595.131 352.131 595.358 352.599 595.7 352.967C596.045 353.336 596.473 353.589 596.983 353.726C597.263 353.801 597.543 353.834 597.821 353.827C598.1 353.819 598.365 353.768 598.617 353.673C598.872 353.577 599.103 353.438 599.311 353.255C599.522 353.071 599.697 352.841 599.835 352.566L600.856 352.84C600.664 353.25 600.421 353.598 600.126 353.884C599.832 354.17 599.502 354.392 599.136 354.549C598.771 354.705 598.384 354.794 597.975 354.816C597.569 354.84 597.153 354.795 596.728 354.681C596.009 354.488 595.416 354.141 594.951 353.64C594.485 353.138 594.178 352.521 594.031 351.787C593.883 351.054 593.929 350.242 594.167 349.353C594.405 348.464 594.772 347.739 595.266 347.177C595.761 346.616 596.335 346.234 596.989 346.033C597.643 345.832 598.329 345.828 599.048 346.02C599.473 346.134 599.856 346.303 600.196 346.526C600.539 346.751 600.83 347.022 601.067 347.342C601.306 347.659 601.481 348.015 601.593 348.409C601.706 348.801 601.742 349.224 601.703 349.679ZM601.668 355.881L603.362 349.558L604.301 349.81L604.045 350.765L604.111 350.782C604.31 350.501 604.586 350.303 604.94 350.189C605.294 350.075 605.661 350.068 606.039 350.17C606.111 350.189 606.2 350.214 606.306 350.246C606.412 350.277 606.492 350.303 606.545 350.323L606.281 351.311C606.25 351.294 606.178 351.261 606.064 351.213C605.954 351.163 605.835 351.121 605.706 351.086C605.398 351.004 605.107 350.995 604.831 351.059C604.558 351.121 604.322 351.246 604.121 351.434C603.925 351.619 603.788 351.855 603.711 352.14L602.639 356.141L601.668 355.881ZM607.802 357.683C607.401 357.576 607.058 357.403 606.771 357.164C606.486 356.923 606.286 356.633 606.171 356.293C606.057 355.951 606.055 355.574 606.165 355.162C606.262 354.8 606.412 354.526 606.615 354.339C606.819 354.149 607.058 354.022 607.331 353.957C607.604 353.892 607.893 353.867 608.198 353.881C608.507 353.893 608.813 353.919 609.117 353.959C609.514 354.013 609.836 354.059 610.081 354.098C610.33 354.136 610.518 354.137 610.644 354.104C610.774 354.071 610.86 353.976 610.901 353.82L610.91 353.787C611.019 353.381 610.992 353.035 610.831 352.751C610.671 352.467 610.368 352.265 609.921 352.145C609.457 352.021 609.066 352.025 608.748 352.157C608.43 352.29 608.187 352.457 608.018 352.659L607.185 352.083C607.452 351.743 607.752 351.502 608.084 351.362C608.419 351.219 608.761 351.149 609.11 351.152C609.463 351.152 609.799 351.195 610.117 351.28C610.32 351.335 610.547 351.422 610.797 351.542C611.051 351.66 611.281 351.826 611.489 352.04C611.699 352.255 611.846 352.535 611.93 352.878C612.015 353.221 611.99 353.644 611.855 354.146L610.739 358.311L609.768 358.051L609.997 357.195L609.948 357.182C609.845 357.301 609.696 357.419 609.5 357.534C609.305 357.649 609.065 357.727 608.78 357.769C608.495 357.81 608.169 357.782 607.802 357.683ZM608.184 356.85C608.568 356.953 608.912 356.964 609.216 356.884C609.522 356.804 609.775 356.663 609.973 356.461C610.174 356.259 610.31 356.026 610.381 355.763L610.619 354.873C610.565 354.912 610.462 354.933 610.311 354.936C610.164 354.938 609.995 354.93 609.806 354.911C609.62 354.891 609.439 354.869 609.263 354.845C609.091 354.82 608.951 354.8 608.843 354.786C608.581 354.751 608.331 354.741 608.092 354.756C607.856 354.77 607.651 354.831 607.478 354.94C607.308 355.048 607.19 355.225 607.123 355.472C607.033 355.81 607.089 356.098 607.293 356.338C607.5 356.576 607.797 356.747 608.184 356.85ZM614.864 359.558C614.337 359.417 613.908 359.159 613.576 358.785C613.244 358.408 613.03 357.944 612.933 357.395C612.837 356.843 612.879 356.232 613.058 355.562C613.236 354.898 613.505 354.352 613.863 353.925C614.222 353.498 614.64 353.205 615.117 353.048C615.595 352.891 616.1 352.883 616.632 353.026C617.044 353.136 617.35 353.292 617.552 353.493C617.758 353.692 617.901 353.895 617.98 354.102C618.064 354.307 618.127 354.473 618.168 354.602L618.251 354.624L619.085 351.512L620.056 351.773L617.797 360.203L616.859 359.951L617.119 358.98L617.004 358.949C616.902 359.045 616.761 359.163 616.582 359.304C616.404 359.441 616.175 359.546 615.894 359.618C615.613 359.687 615.27 359.667 614.864 359.558ZM615.23 358.721C615.619 358.825 615.976 358.812 616.299 358.681C616.623 358.547 616.904 358.318 617.141 357.993C617.379 357.665 617.561 357.263 617.689 356.786C617.816 356.314 617.858 355.882 617.815 355.491C617.774 355.098 617.645 354.766 617.429 354.497C617.214 354.224 616.909 354.035 616.513 353.929C616.102 353.819 615.731 353.833 615.4 353.971C615.072 354.106 614.791 354.336 614.558 354.658C614.328 354.979 614.153 355.362 614.034 355.806C613.914 356.256 613.873 356.683 613.911 357.088C613.953 357.49 614.081 357.836 614.295 358.126C614.512 358.414 614.824 358.612 615.23 358.721Z" fill="#E6E6E6"/>
<circle cx="547.143" cy="356.8" r="2" transform="rotate(15 547.143 356.8)" fill="#D9D9D9"/>
<circle cx="557.769" cy="359.647" r="2" transform="rotate(15 557.769 359.647)" fill="#D9D9D9"/>
<circle cx="568.394" cy="362.494" r="2" transform="rotate(15 568.394 362.494)" fill="#D9D9D9"/>
<circle cx="579.019" cy="365.341" r="2" transform="rotate(15 579.019 365.341)" fill="#D9D9D9"/>
<path d="M596.636 365.168L594.377 373.598L593.356 373.324L595.328 365.964L595.279 365.951L592.855 366.766L593.133 365.729L595.615 364.894L596.636 365.168ZM596.802 374.247L597 373.506L600.599 371.206C601.021 370.937 601.373 370.699 601.655 370.492C601.937 370.282 602.161 370.074 602.325 369.868C602.492 369.66 602.611 369.427 602.68 369.169C602.759 368.873 602.756 368.597 602.672 368.342C602.59 368.088 602.443 367.869 602.23 367.686C602.018 367.502 601.759 367.37 601.454 367.288C601.131 367.201 600.83 367.193 600.552 367.263C600.278 367.33 600.044 367.466 599.848 367.669C599.655 367.874 599.515 368.136 599.429 368.457L598.458 368.197C598.59 367.703 598.82 367.3 599.148 366.988C599.476 366.676 599.864 366.468 600.312 366.364C600.763 366.262 601.234 366.276 601.726 366.408C602.219 366.54 602.629 366.762 602.955 367.073C603.28 367.383 603.504 367.745 603.626 368.157C603.748 368.569 603.751 368.992 603.635 369.425C603.552 369.735 603.414 370.024 603.222 370.29C603.034 370.554 602.754 370.83 602.382 371.119C602.014 371.406 601.519 371.744 600.897 372.133L598.461 373.651L598.444 373.717L602.362 374.767L602.12 375.672L596.802 374.247ZM606.637 377.006C606.094 376.861 605.634 376.637 605.259 376.337C604.886 376.037 604.62 375.688 604.459 375.289C604.302 374.888 604.271 374.463 604.368 374.016L605.405 374.294C605.354 374.571 605.385 374.831 605.496 375.073C605.609 375.312 605.784 375.52 606.021 375.699C606.259 375.877 606.539 376.009 606.863 376.096C607.225 376.193 607.563 376.216 607.877 376.165C608.191 376.114 608.457 375.997 608.677 375.814C608.896 375.632 609.046 375.393 609.125 375.096C609.208 374.786 609.205 374.493 609.114 374.216C609.024 373.936 608.849 373.689 608.589 373.475C608.329 373.261 607.985 373.097 607.557 372.982L606.881 372.801L607.124 371.896L607.799 372.076C608.134 372.166 608.444 372.184 608.729 372.131C609.016 372.079 609.261 371.962 609.462 371.781C609.666 371.6 609.808 371.362 609.888 371.065C609.964 370.78 609.968 370.515 609.898 370.27C609.828 370.025 609.694 369.812 609.495 369.632C609.299 369.453 609.046 369.322 608.736 369.239C608.445 369.161 608.156 369.141 607.87 369.179C607.586 369.215 607.337 369.311 607.122 369.468C606.907 369.623 606.755 369.838 606.666 370.114L605.678 369.849C605.813 369.412 606.05 369.061 606.389 368.796C606.728 368.528 607.124 368.355 607.578 368.276C608.034 368.198 608.505 368.224 608.991 368.355C609.512 368.494 609.931 368.72 610.247 369.031C610.565 369.34 610.778 369.692 610.886 370.089C610.994 370.486 610.995 370.883 610.889 371.281C610.762 371.756 610.528 372.127 610.189 372.395C609.852 372.663 609.454 372.805 608.994 372.82L608.976 372.886C609.485 373.116 609.84 373.454 610.042 373.899C610.244 374.342 610.273 374.83 610.13 375.366C610.007 375.824 609.772 376.202 609.424 376.5C609.08 376.796 608.666 376.991 608.182 377.085C607.698 377.179 607.183 377.152 606.637 377.006ZM611.466 376.323L611.69 375.484L616.966 370.615L617.575 370.778L617.226 372.079L616.815 371.969L612.829 375.648L612.811 375.713L617.8 377.05L617.557 377.956L611.466 376.323ZM614.97 379.115L615.502 377.131L615.607 376.74L617.229 370.686L618.2 370.946L615.942 379.376L614.97 379.115Z" fill="#F0F0EF"/>
<path d="M621.622 441.067C621.002 440.901 620.519 440.591 620.173 440.136C619.828 439.679 619.626 439.097 619.569 438.391C619.512 437.681 619.606 436.868 619.852 435.952C620.096 435.041 620.419 434.294 620.823 433.711C621.23 433.126 621.697 432.721 622.224 432.498C622.755 432.273 623.328 432.242 623.943 432.407C624.557 432.572 625.037 432.884 625.381 433.344C625.729 433.802 625.932 434.385 625.989 435.095C626.049 435.802 625.957 436.611 625.713 437.522C625.467 438.439 625.143 439.19 624.739 439.776C624.335 440.359 623.87 440.762 623.342 440.986C622.816 441.206 622.242 441.233 621.622 441.067ZM621.865 440.162C622.479 440.326 623.036 440.158 623.535 439.656C624.034 439.155 624.431 438.355 624.725 437.258C624.921 436.528 625.009 435.885 624.99 435.33C624.974 434.776 624.856 434.325 624.638 433.978C624.422 433.632 624.11 433.405 623.704 433.296C623.095 433.133 622.539 433.306 622.035 433.815C621.531 434.321 621.133 435.122 620.839 436.217C620.644 436.946 620.555 437.587 620.571 438.139C620.588 438.69 620.705 439.138 620.922 439.481C621.142 439.825 621.456 440.052 621.865 440.162ZM631.121 434.33C631.466 434.426 631.794 434.584 632.106 434.806C632.417 435.028 632.675 435.326 632.88 435.702C633.086 436.075 633.207 436.541 633.242 437.1C633.278 437.66 633.192 438.326 632.984 439.1C632.784 439.849 632.534 440.496 632.235 441.039C631.94 441.581 631.606 442.015 631.233 442.341C630.863 442.669 630.461 442.884 630.028 442.989C629.597 443.094 629.144 443.083 628.669 442.956C628.197 442.829 627.801 442.623 627.48 442.337C627.163 442.049 626.932 441.706 626.785 441.308C626.643 440.908 626.598 440.477 626.651 440.015L627.655 440.284C627.642 440.695 627.736 441.063 627.938 441.388C628.142 441.71 628.467 441.931 628.912 442.05C629.562 442.224 630.151 442.078 630.679 441.61C631.21 441.144 631.615 440.392 631.893 439.355L631.827 439.337C631.611 439.526 631.375 439.676 631.119 439.787C630.863 439.898 630.594 439.964 630.312 439.985C630.03 440.007 629.743 439.979 629.452 439.901C628.969 439.771 628.558 439.533 628.219 439.186C627.883 438.838 627.65 438.421 627.521 437.936C627.396 437.45 627.406 436.935 627.551 436.391C627.69 435.876 627.931 435.434 628.276 435.068C628.625 434.7 629.044 434.444 629.532 434.302C630.023 434.16 630.553 434.169 631.121 434.33ZM630.879 435.236C630.533 435.143 630.198 435.146 629.875 435.245C629.555 435.342 629.275 435.514 629.035 435.761C628.799 436.007 628.633 436.305 628.539 436.656C628.445 437.007 628.436 437.348 628.513 437.677C628.593 438.004 628.744 438.289 628.968 438.531C629.194 438.771 629.481 438.938 629.827 439.03C630.087 439.1 630.344 439.115 630.596 439.073C630.849 439.029 631.083 438.941 631.298 438.807C631.517 438.672 631.705 438.503 631.862 438.301C632.019 438.096 632.132 437.869 632.199 437.619C632.287 437.29 632.29 436.96 632.208 436.629C632.129 436.299 631.975 436.008 631.745 435.755C631.519 435.503 631.23 435.33 630.879 435.236ZM638.742 436.072L633.321 445.437L632.432 445.199L637.853 435.834L638.742 436.072ZM637.512 445.202L637.711 444.461L641.31 442.16C641.732 441.891 642.084 441.653 642.366 441.446C642.648 441.237 642.872 441.029 643.036 440.823C643.203 440.615 643.322 440.382 643.391 440.124C643.47 439.827 643.467 439.552 643.383 439.297C643.301 439.042 643.154 438.824 642.941 438.64C642.729 438.457 642.47 438.324 642.165 438.243C641.842 438.156 641.541 438.147 641.263 438.217C640.989 438.285 640.754 438.42 640.559 438.624C640.366 438.828 640.226 439.091 640.14 439.412L639.169 439.151C639.301 438.658 639.531 438.254 639.859 437.942C640.187 437.63 640.575 437.422 641.023 437.319C641.474 437.216 641.945 437.231 642.437 437.362C642.93 437.495 643.34 437.716 643.666 438.027C643.991 438.338 644.215 438.699 644.337 439.111C644.459 439.523 644.462 439.946 644.346 440.38C644.263 440.69 644.125 440.978 643.933 441.244C643.745 441.508 643.465 441.785 643.093 442.074C642.725 442.36 642.23 442.698 641.608 443.087L639.172 444.605L639.155 444.671L643.073 445.721L642.831 446.627L637.512 445.202ZM647.134 447.903C646.651 447.774 646.242 447.561 645.906 447.265C645.571 446.97 645.331 446.623 645.188 446.226C645.044 445.829 645.019 445.413 645.112 444.979L646.1 445.244C646.036 445.635 646.124 445.997 646.365 446.329C646.608 446.659 646.946 446.882 647.377 446.998C647.722 447.09 648.051 447.092 648.364 447.002C648.679 446.913 648.951 446.747 649.18 446.506C649.413 446.263 649.578 445.961 649.674 445.602C649.773 445.234 649.78 444.884 649.695 444.553C649.614 444.219 649.456 443.931 649.221 443.689C648.986 443.446 648.689 443.276 648.33 443.177C648.073 443.105 647.797 443.074 647.503 443.083C647.211 443.09 646.959 443.133 646.75 443.212L645.826 442.841L647.448 438.829L651.828 440.002L651.585 440.908L648.061 439.964L647.099 442.37L647.148 442.384C647.358 442.293 647.605 442.237 647.89 442.216C648.175 442.196 648.459 442.223 648.742 442.299C649.257 442.437 649.684 442.684 650.021 443.039C650.362 443.392 650.591 443.812 650.707 444.299C650.826 444.787 650.813 445.304 650.667 445.85C650.522 446.388 650.273 446.836 649.918 447.193C649.567 447.549 649.149 447.793 648.663 447.925C648.179 448.054 647.669 448.047 647.134 447.903Z" fill="#F8F8FA"/>
<rect opacity="0.2" x="533.307" y="400.715" width="34" height="22" rx="4" transform="rotate(15 533.307 400.715)" fill="white"/>
</g>
<rect x="104" y="391" width="138" height="70" rx="10" fill="white"/>
<path d="M121.71 444.454V429.909H122.642V444.454H121.71ZM124.625 434.42C124.564 433.882 124.314 433.466 123.875 433.17C123.436 432.871 122.883 432.721 122.216 432.721C121.739 432.721 121.326 432.797 120.977 432.949C120.629 433.096 120.358 433.301 120.165 433.562C119.975 433.82 119.881 434.113 119.881 434.443C119.881 434.719 119.945 434.958 120.074 435.159C120.206 435.36 120.379 435.528 120.591 435.665C120.807 435.797 121.038 435.909 121.284 436C121.53 436.087 121.767 436.159 121.994 436.216L123.131 436.511C123.502 436.602 123.883 436.725 124.273 436.88C124.663 437.036 125.025 437.24 125.358 437.494C125.691 437.748 125.96 438.062 126.165 438.437C126.373 438.812 126.477 439.261 126.477 439.784C126.477 440.443 126.307 441.028 125.966 441.54C125.629 442.051 125.138 442.454 124.494 442.75C123.854 443.045 123.08 443.193 122.17 443.193C121.299 443.193 120.545 443.055 119.909 442.778C119.273 442.502 118.775 442.11 118.415 441.602C118.055 441.091 117.856 440.485 117.818 439.784H119.58C119.614 440.204 119.75 440.555 119.989 440.835C120.231 441.111 120.54 441.318 120.915 441.454C121.294 441.587 121.708 441.653 122.159 441.653C122.655 441.653 123.097 441.576 123.483 441.42C123.873 441.261 124.18 441.041 124.403 440.761C124.627 440.477 124.739 440.146 124.739 439.767C124.739 439.422 124.64 439.14 124.443 438.92C124.25 438.701 123.987 438.519 123.653 438.375C123.324 438.231 122.951 438.104 122.534 437.994L121.159 437.619C120.227 437.365 119.489 436.992 118.943 436.5C118.402 436.007 118.131 435.356 118.131 434.545C118.131 433.875 118.313 433.29 118.676 432.79C119.04 432.29 119.532 431.901 120.153 431.625C120.775 431.344 121.475 431.204 122.256 431.204C123.044 431.204 123.739 431.343 124.341 431.619C124.947 431.896 125.424 432.276 125.773 432.761C126.121 433.242 126.303 433.795 126.318 434.42H124.625ZM128.416 443V441.727L132.354 437.647C132.774 437.204 133.121 436.816 133.393 436.483C133.67 436.146 133.876 435.826 134.013 435.522C134.149 435.219 134.217 434.897 134.217 434.557C134.217 434.17 134.126 433.837 133.945 433.557C133.763 433.272 133.515 433.055 133.2 432.903C132.886 432.748 132.532 432.67 132.138 432.67C131.721 432.67 131.357 432.755 131.047 432.926C130.736 433.096 130.498 433.337 130.331 433.647C130.164 433.958 130.081 434.322 130.081 434.738H128.405C128.405 434.03 128.568 433.411 128.893 432.88C129.219 432.35 129.666 431.939 130.234 431.647C130.803 431.352 131.448 431.204 132.172 431.204C132.903 431.204 133.547 431.35 134.104 431.642C134.664 431.93 135.102 432.324 135.416 432.824C135.731 433.32 135.888 433.88 135.888 434.505C135.888 434.937 135.806 435.36 135.643 435.772C135.484 436.185 135.206 436.646 134.808 437.153C134.411 437.657 133.857 438.269 133.149 438.988L130.837 441.409V441.494H136.075V443H128.416ZM137.734 440.727V439.307L142.763 431.363H143.882V433.454H143.172L139.575 439.147V439.238H146.467V440.727H137.734ZM143.251 443V440.295L143.263 439.647V431.363H144.928V443H143.251ZM152.288 443.159C151.576 443.159 150.936 443.022 150.368 442.75C149.804 442.473 149.353 442.094 149.016 441.613C148.679 441.132 148.499 440.583 148.476 439.966H150.18C150.222 440.466 150.444 440.877 150.845 441.199C151.247 441.521 151.728 441.682 152.288 441.682C152.735 441.682 153.131 441.579 153.476 441.375C153.824 441.166 154.097 440.88 154.294 440.517C154.495 440.153 154.595 439.738 154.595 439.272C154.595 438.799 154.493 438.377 154.288 438.005C154.084 437.634 153.802 437.343 153.442 437.13C153.086 436.918 152.677 436.81 152.214 436.807C151.862 436.807 151.508 436.867 151.152 436.988C150.796 437.11 150.508 437.269 150.288 437.466L148.68 437.227L149.334 431.363H155.732V432.869H150.794L150.425 436.125H150.493C150.72 435.905 151.021 435.721 151.396 435.574C151.775 435.426 152.18 435.352 152.612 435.352C153.321 435.352 153.951 435.521 154.504 435.858C155.061 436.195 155.499 436.655 155.817 437.238C156.139 437.818 156.298 438.485 156.294 439.238C156.298 439.992 156.127 440.665 155.783 441.255C155.442 441.846 154.968 442.312 154.362 442.653C153.76 442.99 153.069 443.159 152.288 443.159ZM159.089 443.108C158.779 443.108 158.512 442.998 158.288 442.778C158.065 442.555 157.953 442.286 157.953 441.971C157.953 441.661 158.065 441.396 158.288 441.176C158.512 440.952 158.779 440.841 159.089 440.841C159.4 440.841 159.667 440.952 159.891 441.176C160.114 441.396 160.226 441.661 160.226 441.971C160.226 442.18 160.173 442.371 160.067 442.545C159.964 442.716 159.828 442.852 159.658 442.954C159.487 443.057 159.298 443.108 159.089 443.108ZM166.108 443.193C165.21 443.189 164.443 442.952 163.807 442.483C163.17 442.013 162.684 441.329 162.347 440.432C162.009 439.534 161.841 438.452 161.841 437.187C161.841 435.926 162.009 434.848 162.347 433.954C162.688 433.06 163.176 432.379 163.812 431.909C164.453 431.439 165.218 431.204 166.108 431.204C166.998 431.204 167.761 431.441 168.398 431.915C169.034 432.384 169.521 433.066 169.858 433.96C170.199 434.85 170.369 435.926 170.369 437.187C170.369 438.456 170.201 439.54 169.864 440.437C169.527 441.331 169.04 442.015 168.403 442.488C167.767 442.958 167.002 443.193 166.108 443.193ZM166.108 441.676C166.896 441.676 167.511 441.291 167.955 440.522C168.402 439.754 168.625 438.642 168.625 437.187C168.625 436.221 168.523 435.405 168.318 434.738C168.117 434.068 167.828 433.56 167.449 433.216C167.074 432.867 166.627 432.693 166.108 432.693C165.324 432.693 164.708 433.079 164.261 433.852C163.814 434.625 163.589 435.736 163.585 437.187C163.585 438.157 163.686 438.977 163.886 439.647C164.091 440.314 164.381 440.82 164.756 441.165C165.131 441.505 165.581 441.676 166.108 441.676ZM176.436 443.193C175.538 443.189 174.771 442.952 174.135 442.483C173.499 442.013 173.012 441.329 172.675 440.432C172.338 439.534 172.169 438.452 172.169 437.187C172.169 435.926 172.338 434.848 172.675 433.954C173.016 433.06 173.504 432.379 174.141 431.909C174.781 431.439 175.546 431.204 176.436 431.204C177.326 431.204 178.089 431.441 178.726 431.915C179.362 432.384 179.849 433.066 180.186 433.96C180.527 434.85 180.697 435.926 180.697 437.187C180.697 438.456 180.529 439.54 180.192 440.437C179.855 441.331 179.368 442.015 178.732 442.488C178.095 442.958 177.33 443.193 176.436 443.193ZM176.436 441.676C177.224 441.676 177.839 441.291 178.283 440.522C178.73 439.754 178.953 438.642 178.953 437.187C178.953 436.221 178.851 435.405 178.646 434.738C178.446 434.068 178.156 433.56 177.777 433.216C177.402 432.867 176.955 432.693 176.436 432.693C175.652 432.693 175.036 433.079 174.589 433.852C174.143 434.625 173.917 435.736 173.913 437.187C173.913 438.157 174.014 438.977 174.214 439.647C174.419 440.314 174.709 440.82 175.084 441.165C175.459 441.505 175.91 441.676 176.436 441.676Z" fill="black"/>
<path d="M116.58 408.21V407.272H123.125V408.21H120.381V416H119.324V408.21H116.58ZM126.33 416.136C125.739 416.136 125.22 415.995 124.774 415.714C124.331 415.433 123.984 415.04 123.734 414.534C123.487 414.028 123.364 413.437 123.364 412.761C123.364 412.079 123.487 411.484 123.734 410.976C123.984 410.467 124.331 410.072 124.774 409.791C125.22 409.51 125.739 409.369 126.33 409.369C126.92 409.369 127.438 409.51 127.881 409.791C128.327 410.072 128.673 410.467 128.92 410.976C129.17 411.484 129.295 412.079 129.295 412.761C129.295 413.437 129.17 414.028 128.92 414.534C128.673 415.04 128.327 415.433 127.881 415.714C127.438 415.995 126.92 416.136 126.33 416.136ZM126.33 415.233C126.778 415.233 127.148 415.118 127.438 414.888C127.727 414.657 127.942 414.355 128.081 413.98C128.22 413.605 128.29 413.199 128.29 412.761C128.29 412.324 128.22 411.916 128.081 411.538C127.942 411.16 127.727 410.855 127.438 410.622C127.148 410.389 126.778 410.272 126.33 410.272C125.881 410.272 125.511 410.389 125.222 410.622C124.932 410.855 124.717 411.16 124.578 411.538C124.439 411.916 124.369 412.324 124.369 412.761C124.369 413.199 124.439 413.605 124.578 413.98C124.717 414.355 124.932 414.657 125.222 414.888C125.511 415.118 125.881 415.233 126.33 415.233ZM133.677 409.454V410.307H130.285V409.454H133.677ZM131.274 407.886H132.279V414.125C132.279 414.409 132.321 414.622 132.403 414.764C132.488 414.903 132.596 414.997 132.727 415.045C132.86 415.091 133.001 415.113 133.149 415.113C133.26 415.113 133.35 415.108 133.422 415.096C133.493 415.082 133.549 415.071 133.592 415.062L133.797 415.966C133.728 415.991 133.633 416.017 133.511 416.042C133.389 416.071 133.234 416.085 133.047 416.085C132.762 416.085 132.484 416.024 132.211 415.902C131.941 415.78 131.717 415.594 131.538 415.344C131.362 415.094 131.274 414.778 131.274 414.397V407.886ZM137.116 416.153C136.701 416.153 136.325 416.075 135.987 415.919C135.649 415.76 135.38 415.531 135.181 415.233C134.983 414.932 134.883 414.568 134.883 414.142C134.883 413.767 134.957 413.463 135.105 413.23C135.252 412.994 135.45 412.809 135.697 412.676C135.944 412.542 136.217 412.443 136.515 412.378C136.816 412.309 137.119 412.255 137.423 412.216C137.821 412.165 138.143 412.126 138.39 412.101C138.64 412.072 138.822 412.025 138.936 411.96C139.052 411.895 139.11 411.781 139.11 411.619V411.585C139.11 411.165 138.995 410.838 138.765 410.605C138.538 410.372 138.193 410.255 137.73 410.255C137.25 410.255 136.873 410.361 136.6 410.571C136.328 410.781 136.136 411.005 136.025 411.244L135.071 410.903C135.241 410.505 135.468 410.196 135.752 409.974C136.039 409.75 136.352 409.594 136.69 409.505C137.031 409.415 137.366 409.369 137.696 409.369C137.906 409.369 138.147 409.395 138.42 409.446C138.696 409.494 138.961 409.595 139.217 409.748C139.475 409.902 139.69 410.133 139.86 410.443C140.031 410.753 140.116 411.167 140.116 411.687V416H139.11V415.113H139.059C138.991 415.255 138.877 415.407 138.718 415.569C138.559 415.731 138.348 415.869 138.083 415.983C137.819 416.096 137.497 416.153 137.116 416.153ZM137.27 415.25C137.667 415.25 138.002 415.172 138.275 415.015C138.551 414.859 138.758 414.657 138.897 414.41C139.039 414.163 139.11 413.903 139.11 413.63V412.71C139.068 412.761 138.974 412.808 138.829 412.851C138.687 412.89 138.522 412.926 138.335 412.957C138.15 412.986 137.97 413.011 137.794 413.034C137.62 413.054 137.48 413.071 137.372 413.085C137.11 413.119 136.866 413.174 136.639 413.251C136.414 413.325 136.233 413.437 136.093 413.588C135.957 413.736 135.889 413.937 135.889 414.193C135.889 414.542 136.018 414.807 136.277 414.986C136.538 415.162 136.869 415.25 137.27 415.25ZM142.957 407.272V416H141.952V407.272H142.957ZM149.368 407.272V416H148.311V407.272H149.368ZM152.356 412.062V416H151.35V409.454H152.322V410.477H152.407C152.56 410.145 152.793 409.878 153.106 409.676C153.418 409.471 153.822 409.369 154.316 409.369C154.759 409.369 155.147 409.46 155.479 409.642C155.812 409.821 156.07 410.094 156.255 410.46C156.44 410.824 156.532 411.284 156.532 411.841V416H155.526V411.909C155.526 411.395 155.393 410.994 155.126 410.707C154.859 410.417 154.492 410.272 154.026 410.272C153.705 410.272 153.418 410.342 153.165 410.481C152.915 410.62 152.718 410.824 152.573 411.091C152.428 411.358 152.356 411.682 152.356 412.062ZM161.029 416.136C160.415 416.136 159.887 415.991 159.444 415.701C159 415.412 158.659 415.013 158.421 414.504C158.182 413.995 158.063 413.415 158.063 412.761C158.063 412.096 158.185 411.51 158.429 411.001C158.676 410.49 159.02 410.091 159.461 409.804C159.904 409.514 160.421 409.369 161.012 409.369C161.472 409.369 161.887 409.454 162.256 409.625C162.625 409.795 162.928 410.034 163.164 410.341C163.4 410.647 163.546 411.005 163.603 411.415H162.597C162.52 411.116 162.35 410.852 162.086 410.622C161.824 410.389 161.472 410.272 161.029 410.272C160.637 410.272 160.293 410.375 159.998 410.579C159.705 410.781 159.476 411.067 159.311 411.436C159.15 411.802 159.069 412.233 159.069 412.727C159.069 413.233 159.148 413.673 159.307 414.048C159.469 414.423 159.696 414.714 159.989 414.922C160.284 415.129 160.631 415.233 161.029 415.233C161.29 415.233 161.527 415.187 161.74 415.096C161.953 415.005 162.134 414.875 162.282 414.704C162.429 414.534 162.534 414.329 162.597 414.091H163.603C163.546 414.477 163.405 414.825 163.181 415.135C162.959 415.442 162.665 415.686 162.299 415.868C161.935 416.047 161.512 416.136 161.029 416.136ZM167.732 416.136C167.141 416.136 166.623 415.995 166.176 415.714C165.733 415.433 165.387 415.04 165.137 414.534C164.89 414.028 164.766 413.437 164.766 412.761C164.766 412.079 164.89 411.484 165.137 410.976C165.387 410.467 165.733 410.072 166.176 409.791C166.623 409.51 167.141 409.369 167.732 409.369C168.323 409.369 168.84 409.51 169.283 409.791C169.729 410.072 170.076 410.467 170.323 410.976C170.573 411.484 170.698 412.079 170.698 412.761C170.698 413.437 170.573 414.028 170.323 414.534C170.076 415.04 169.729 415.433 169.283 415.714C168.84 415.995 168.323 416.136 167.732 416.136ZM167.732 415.233C168.181 415.233 168.55 415.118 168.84 414.888C169.13 414.657 169.344 414.355 169.483 413.98C169.623 413.605 169.692 413.199 169.692 412.761C169.692 412.324 169.623 411.916 169.483 411.538C169.344 411.16 169.13 410.855 168.84 410.622C168.55 410.389 168.181 410.272 167.732 410.272C167.283 410.272 166.914 410.389 166.624 410.622C166.334 410.855 166.12 411.16 165.98 411.538C165.841 411.916 165.772 412.324 165.772 412.761C165.772 413.199 165.841 413.605 165.98 413.98C166.12 414.355 166.334 414.657 166.624 414.888C166.914 415.118 167.283 415.233 167.732 415.233ZM172.233 416V409.454H173.205V410.477H173.29C173.426 410.128 173.646 409.856 173.95 409.663C174.254 409.467 174.619 409.369 175.045 409.369C175.477 409.369 175.837 409.467 176.124 409.663C176.413 409.856 176.639 410.128 176.801 410.477H176.869C177.037 410.139 177.288 409.87 177.624 409.672C177.959 409.47 178.361 409.369 178.83 409.369C179.415 409.369 179.893 409.552 180.266 409.919C180.638 410.282 180.824 410.849 180.824 411.619V416H179.818V411.619C179.818 411.136 179.686 410.791 179.422 410.584C179.158 410.376 178.847 410.272 178.489 410.272C178.028 410.272 177.672 410.412 177.419 410.69C177.166 410.966 177.04 411.315 177.04 411.738V416H176.017V411.517C176.017 411.145 175.896 410.845 175.655 410.618C175.413 410.388 175.102 410.272 174.722 410.272C174.46 410.272 174.216 410.342 173.989 410.481C173.764 410.62 173.582 410.814 173.443 411.061C173.307 411.305 173.239 411.588 173.239 411.909V416H172.233ZM185.407 416.136C184.776 416.136 184.232 415.997 183.775 415.719C183.32 415.437 182.969 415.045 182.722 414.542C182.478 414.037 182.356 413.449 182.356 412.778C182.356 412.108 182.478 411.517 182.722 411.005C182.969 410.491 183.313 410.091 183.754 409.804C184.197 409.514 184.714 409.369 185.305 409.369C185.646 409.369 185.982 409.426 186.315 409.54C186.647 409.653 186.95 409.838 187.222 410.094C187.495 410.346 187.712 410.682 187.874 411.099C188.036 411.517 188.117 412.031 188.117 412.642V413.068H183.072V412.199H187.094C187.094 411.829 187.021 411.5 186.873 411.21C186.728 410.92 186.521 410.692 186.251 410.524C185.984 410.356 185.668 410.272 185.305 410.272C184.904 410.272 184.558 410.372 184.265 410.571C183.975 410.767 183.752 411.022 183.596 411.338C183.44 411.653 183.362 411.991 183.362 412.352V412.932C183.362 413.426 183.447 413.845 183.617 414.189C183.79 414.53 184.031 414.79 184.337 414.969C184.644 415.145 185.001 415.233 185.407 415.233C185.671 415.233 185.91 415.196 186.123 415.122C186.339 415.045 186.525 414.932 186.681 414.781C186.837 414.628 186.958 414.437 187.043 414.21L188.015 414.483C187.913 414.812 187.741 415.102 187.499 415.352C187.258 415.599 186.96 415.792 186.604 415.932C186.249 416.068 185.85 416.136 185.407 416.136Z" fill="#A9A7B6"/>
<path d="M225 443.666V435.333" stroke="#52BD94" stroke-width="1.66667" stroke-linecap="round" stroke-linejoin="round"/>
<path d="M220 443.666V430.333" stroke="#52BD94" stroke-width="1.66667" stroke-linecap="round" stroke-linejoin="round"/>
<path d="M215 443.667V438.667" stroke="#52BD94" stroke-width="1.66667" stroke-linecap="round" stroke-linejoin="round"/>
<defs>
<clipPath id="clip0_135_7">
<rect x="560.658" y="260" width="146" height="188" rx="10" transform="rotate(15 560.658 260)" fill="white"/>
</clipPath>
</defs>
</svg>
